<?xml version="1.0" standalone="no"?>
<!DOCTYPE svg PUBLIC "-//W3C//DTD SVG 20010904//EN"
 "http://www.w3.org/TR/2001/REC-SVG-20010904/DTD/svg10.dtd">
<svg version="1.0" xmlns="http://www.w3.org/2000/svg"
 width="300.000000pt" height="300.000000pt" viewBox="0 0 300.000000 300.000000"
 preserveAspectRatio="xMidYMid meet">
<metadata>
Created by potrace 1.10, written by Peter Selinger 2001-2011
</metadata>
<g transform="translate(0.000000,300.000000) scale(0.050000,-0.050000)"
fill="#000000" stroke="none">
<path d="M2607 5929 c0 -15 8 -22 19 -15 12 7 15 -8 7 -41 -11 -43 -7 -53 22
-51 20 1 25 5 10 11 -17 7 -19 21 -6 45 13 25 9 40 -17 56 -27 17 -35 16 -35
-5z"/>
<path d="M5894 5407 c-7 -7 -3 -30 9 -52 19 -37 16 -40 -31 -31 -44 9 -52 3
-52 -37 0 -26 9 -47 19 -47 11 0 15 14 8 30 -7 19 1 30 21 30 29 0 41 -24 34
-66 -2 -10 5 -12 14 -7 9 6 14 49 10 96 -7 90 -12 104 -32 84z"/>
<path d="M2420 5347 c-104 -14 -210 -30 -235 -35 -150 -33 -303 -79 -458 -138
-97 -37 -219 -83 -270 -102 -520 -190 -927 -703 -927 -1167 0 -218 -1 -225
-44 -225 -98 0 -134 -127 -56 -200 70 -66 24 -89 -96 -48 -164 55 -246 -51
-104 -135 81 -47 92 -97 23 -97 -111 0 -145 -122 -57 -206 70 -67 85 -67 163
-1 60 50 64 50 90 15 23 -31 34 -33 79 -13 91 42 118 14 103 -106 -9 -66 -6
-110 8 -118 36 -23 23 -46 -49 -88 -82 -49 -133 -137 -93 -161 19 -12 15 -33
-17 -88 -66 -111 -86 -305 -49 -467 43 -183 57 -204 177 -259 58 -26 126 -70
152 -98 33 -36 126 -75 309 -133 143 -45 329 -115 411 -157 148 -73 154 -75
450 -86 165 -7 404 -31 530 -53 278 -49 515 -52 661 -9 85 26 153 30 309 19
226 -15 440 42 653 173 78 48 134 65 259 77 177 18 198 23 368 89 66 26 164
53 218 61 82 12 355 126 630 264 180 91 243 447 101 576 -33 29 -34 37 -8 63
34 34 37 83 8 158 -17 46 -13 62 29 106 166 173 151 468 -32 644 -99 94 -101
99 -76 158 37 89 13 284 -60 503 -206 614 -607 951 -1362 1145 -517 132 -1311
196 -1738 139z m960 -158 c129 -13 593 -86 647 -102 34 -10 34 -13 -6 -56 -45
-48 -54 -191 -12 -191 12 0 30 -20 41 -45 13 -30 38 -46 75 -47 31 -1 61 -8
68 -14 7 -7 50 14 97 46 86 59 123 139 83 179 -43 43 82 -1 279 -99 199 -99
448 -293 448 -350 0 -14 13 -31 30 -37 16 -6 45 -48 64 -92 20 -45 42 -81 51
-81 8 0 15 -13 15 -30 0 -16 10 -30 23 -30 13 0 19 -5 12 -11 -6 -7 11 -67 39
-135 52 -131 113 -421 90 -429 -22 -8 -11 -213 12 -220 36 -12 2 -79 -53 -105
-195 -91 -459 -193 -488 -189 -19 3 -35 -3 -35 -13 0 -10 -28 -18 -61 -18 -41
0 -57 -8 -47 -23 10 -17 -7 -20 -62 -11 -42 7 -117 6 -168 -1 l-92 -14 80 -11
c44 -5 -77 -11 -269 -12 -241 -2 -352 -10 -357 -25 -5 -16 -62 -20 -181 -14
-95 5 -303 15 -463 21 -159 6 -339 16 -400 21 -60 5 -294 23 -520 40 -1067 80
-1760 303 -1760 566 0 36 76 27 100 -12 16 -26 19 0 9 106 -45 508 302 958
933 1211 614 246 1047 301 1778 227z m861 -226 c89 -72 -14 -141 -122 -82 -38
20 -52 79 -26 106 26 25 103 13 148 -24z m-3566 -1663 c28 -22 62 -40 76 -40
13 0 30 -13 36 -30 6 -16 23 -25 37 -20 32 12 90 -23 71 -42 -8 -7 -28 -2 -45
12 -16 14 -30 20 -30 14 0 -6 -5 -25 -12 -42 -10 -26 3 -32 71 -32 58 0 79 -7
69 -23 -9 -14 -5 -18 9 -9 30 19 488 -24 502 -47 15 -23 215 -39 631 -51 187
-5 345 -10 350 -12 6 -1 26 -1 45 1 19 2 35 -6 35 -18 0 -27 73 -28 90 -1 7
11 50 20 96 19 78 0 81 -2 45 -30 -37 -28 -36 -29 16 -29 31 0 50 8 44 19 -6
10 -1 25 12 33 14 9 18 6 10 -8 -21 -33 105 -50 272 -37 80 7 294 13 475 15
182 2 402 11 490 19 88 9 221 21 295 27 297 24 406 38 427 55 54 42 843 105
802 64 -8 -7 -4 -25 9 -40 12 -15 15 -27 7 -27 -8 0 -3 -14 11 -32 22 -25 22
-34 0 -47 -14 -9 -21 -26 -14 -36 23 -37 -49 -73 -154 -78 -57 -3 -215 -13
-353 -23 l-250 -17 216 -3 215 -4 -33 -65 c-45 -87 -59 -94 -145 -63 -40 14
-86 27 -101 27 -44 2 -202 -83 -190 -102 6 -9 1 -17 -11 -17 -11 0 -21 -11
-21 -25 0 -26 -88 -75 -135 -75 -15 0 -37 27 -48 60 -37 106 -85 113 -217 32
-177 -110 -280 -75 -280 93 0 106 -64 119 -170 35 -100 -80 -159 -77 -239 10
-74 81 -103 85 -211 30 -45 -23 -118 -40 -170 -40 -112 0 -204 -37 -270 -110
-152 -166 -257 -85 -189 145 19 62 -37 79 -123 38 -94 -45 -132 -42 -250 20
-211 111 -310 102 -688 -56 -289 -122 -356 -136 -411 -86 -32 29 -38 30 -29 6
32 -84 103 -88 266 -17 179 79 230 82 544 34 127 -19 280 -39 340 -44 184 -16
230 -34 212 -83 -6 -16 2 -34 18 -40 17 -6 30 -28 30 -47 0 -20 11 -41 25 -46
57 -20 -10 -35 -181 -40 -110 -4 -177 2 -169 13 6 11 0 12 -14 4 -46 -29 -238
-27 -249 2 -6 14 -22 22 -36 18 -77 -26 -360 -25 -370 1 -6 18 -42 28 -97 28
-62 0 -93 10 -107 35 -13 22 -21 25 -21 9 -1 -15 -10 -21 -20 -15 -31 20 -2
66 50 80 27 6 49 20 49 31 0 10 13 14 28 8 15 -6 34 -1 41 11 20 31 -63 26
-93 -6 -13 -15 -41 -23 -60 -18 -20 6 -36 -1 -36 -15 0 -14 -16 -21 -37 -15
-29 8 -36 1 -28 -28 8 -31 2 -35 -30 -22 -64 24 -165 109 -153 128 6 9 -3 17
-20 17 -35 0 -78 68 -56 89 8 8 5 12 -6 9 -43 -10 -85 25 -75 63 9 36 -56 55
-141 41 -8 -1 -20 10 -26 26 -7 19 -31 25 -69 19 -51 -8 -59 -3 -59 38 0 25
-17 81 -39 122 -31 62 -33 74 -8 65 19 -8 27 -3 22 13 -5 14 -28 24 -52 23
-24 0 -43 4 -43 11 0 13 -48 21 -150 25 -33 1 -48 6 -34 11 19 7 17 16 -10 35
-20 15 -31 30 -26 33 120 80 153 86 215 37z m4853 -51 c29 -21 52 -43 52 -49
0 -21 -100 -56 -111 -38 -14 23 -109 24 -109 1 0 -9 -13 -16 -30 -16 -16 0
-30 6 -30 14 0 8 14 20 30 26 17 7 30 23 30 37 0 16 -6 18 -15 6 -8 -11 -24
-22 -35 -24 -11 -1 -36 -9 -55 -17 -20 -8 -35 -4 -35 9 0 12 13 22 30 22 16 0
58 18 94 39 75 46 113 44 184 -10z m-1362 -244 c-47 -4 -128 -4 -180 0 -53 4
-15 8 84 8 99 0 142 -3 96 -8z m-3161 -280 l71 12 13 -89 c24 -158 174 -253
549 -347 745 -185 2249 -98 2953 172 13 5 30 -14 37 -43 23 -90 124 -63 215
58 101 134 119 142 229 93 158 -70 195 -56 276 103 48 96 83 107 165 52 67
-46 92 -90 39 -69 -21 8 -30 -12 -35 -77 -6 -77 -2 -87 32 -84 54 5 63 -58 12
-85 -22 -12 -200 -58 -396 -102 -671 -150 -808 -219 -1255 -629 -330 -303
-359 -306 -680 -60 -331 252 -830 411 -2556 813 -133 31 -146 54 -59 99 34 17
87 48 118 68 l55 36 -49 21 -49 20 47 8 c26 5 62 34 80 66 l33 57 42 -52 c35
-44 52 -51 113 -41z m2565 -125 c7 -11 30 -20 51 -20 22 0 39 -13 39 -29 0
-16 20 -40 45 -54 42 -22 38 -26 -65 -50 -128 -31 -580 -50 -580 -24 0 9 9 18
20 20 11 1 29 4 40 7 11 3 31 6 45 8 17 2 16 9 -5 22 -27 17 -27 20 0 23 17 2
39 5 50 8 11 2 37 5 57 7 25 1 33 12 26 32 -9 22 3 30 46 30 32 0 64 9 71 20
7 11 43 20 80 20 37 0 73 -9 80 -20z m-2770 -364 c44 0 80 -8 80 -18 0 -9 14
-12 30 -5 17 6 30 0 30 -13 0 -15 19 -21 49 -15 27 5 54 -1 59 -13 6 -14 16
-11 30 8 19 26 21 26 22 -4 0 -23 16 -33 55 -32 30 1 75 -4 98 -12 58 -18 122
-32 206 -44 38 -5 74 -16 80 -24 10 -13 25 -17 141 -33 28 -4 50 -9 50 -11 0
-3 25 -10 105 -28 24 -5 59 -18 77 -28 19 -10 50 -14 71 -9 21 6 37 -1 37 -15
0 -15 16 -21 39 -14 22 5 42 2 45 -8 6 -17 91 -38 181 -44 19 -1 35 -10 35
-18 0 -9 23 -16 51 -16 28 0 47 -7 42 -15 -5 -8 19 -16 53 -17 34 -2 65 -12
69 -24 4 -12 21 -17 36 -11 16 6 29 3 29 -8 0 -10 14 -20 30 -22 17 -1 43 -4
59 -6 16 -2 34 -16 40 -30 5 -15 35 -27 65 -27 32 0 99 -30 155 -70 54 -38
110 -70 125 -70 14 0 26 -8 26 -18 0 -10 29 -37 65 -60 36 -23 57 -41 48 -42
-10 0 -7 -13 7 -30 21 -25 18 -30 -18 -32 -74 -5 -83 -8 -98 -29 -8 -12 -32
-22 -54 -24 -22 -1 -92 -8 -155 -16 -75 -10 -115 -7 -115 6 0 12 -28 17 -65
12 -86 -11 -226 20 -220 50 3 13 -4 23 -15 23 -11 0 -20 -7 -20 -16 0 -28
-217 -20 -229 9 -5 15 -21 27 -35 27 -19 -1 -17 -7 4 -22 24 -17 22 -19 -10
-6 -22 9 -136 16 -254 16 -117 0 -209 8 -203 16 5 9 -9 16 -31 16 -22 0 -45 9
-52 20 -8 13 -26 13 -51 -1 -30 -15 -38 -14 -34 4 3 14 -11 26 -31 26 -19 1
-44 15 -54 31 -11 17 -20 22 -20 12 0 -10 -18 -2 -39 17 -22 20 -53 31 -70 24
-17 -6 -31 -3 -31 8 0 10 -7 18 -15 17 -38 -6 -66 4 -56 20 6 10 -7 14 -29 8
-23 -6 -40 -1 -40 12 0 17 -11 18 -40 2 -32 -17 -43 -15 -53 10 -7 18 -25 28
-40 22 -15 -6 -27 -3 -27 7 0 9 -25 26 -55 37 -30 11 -75 39 -99 62 -24 23
-50 42 -58 42 -22 0 -105 97 -93 108 6 6 -4 17 -22 24 -18 7 -27 22 -20 33 9
14 1 17 -23 8 -29 -11 -31 -9 -12 15 17 20 17 32 3 42 -12 7 -15 23 -7 36 26
43 20 94 -12 95 -24 1 -21 6 8 19 22 9 32 18 23 19 -10 0 -7 14 7 31 13 16 33
25 42 19 10 -7 54 -12 98 -13z m4696 -89 c18 -18 19 -27 4 -27 -12 0 -17 -9
-10 -20 7 -11 2 -20 -10 -20 -12 0 -18 -7 -12 -16 9 -16 -66 -93 -88 -91 -17
1 -147 -61 -220 -106 -39 -23 -92 -49 -119 -57 -27 -9 -61 -28 -77 -43 -16
-16 -46 -22 -75 -15 -34 9 -49 4 -49 -15 -1 -22 -4 -22 -19 1 -15 25 -25 24
-69 -5 -36 -23 -52 -26 -52 -10 0 14 -12 8 -27 -12 -15 -21 -37 -31 -50 -23
-13 8 -29 1 -35 -17 -10 -25 -19 -27 -41 -8 -23 19 -28 18 -23 -5 4 -19 -14
-29 -54 -32 -33 -2 -91 -9 -130 -14 -38 -5 -119 -15 -180 -22 l-110 -13 54 49
c29 28 49 54 44 59 -5 5 18 21 51 35 33 13 56 32 50 41 -5 9 22 27 60 41 38
14 66 30 62 37 -9 15 42 61 54 49 5 -5 21 5 35 22 14 16 37 30 51 30 14 0 38
11 53 25 33 32 202 91 304 106 42 7 94 16 115 21 20 4 57 12 81 18 23 5 48 16
55 25 6 8 29 16 51 18 70 6 174 24 183 33 15 15 116 -12 143 -39z"/>
<path d="M3290 5141 c-100 -40 -139 -135 -90 -216 20 -34 31 -67 24 -74 -7 -7
2 -8 19 -1 19 7 37 0 44 -19 22 -58 144 -39 211 34 62 65 72 174 18 193 -11 4
-37 23 -56 42 -43 43 -118 61 -170 41z m98 -103 c62 -49 64 -123 4 -135 -46
-9 -111 68 -112 132 0 56 39 57 108 3z"/>
<path d="M2550 5112 c-22 -12 -53 -40 -70 -62 -36 -47 -64 -135 -38 -119 10 6
18 -12 18 -40 0 -28 10 -51 22 -51 15 0 14 -11 -4 -32 -17 -20 -29 -24 -34
-10 -4 12 -20 22 -35 22 -15 0 -23 -12 -18 -26 6 -15 -10 -36 -35 -48 -78 -36
-116 -125 -84 -196 14 -33 27 -53 27 -45 1 8 18 -1 38 -20 20 -19 34 -40 30
-47 -22 -43 160 26 210 79 81 87 89 132 30 191 -35 34 -42 53 -25 63 15 9 19
7 11 -7 -9 -13 2 -20 26 -19 26 2 34 10 21 23 -19 19 94 118 118 103 7 -4 14
33 17 81 3 52 -3 88 -16 88 -12 0 -16 9 -10 19 29 47 -134 90 -199 53z m130
-98 c0 -83 -40 -141 -91 -131 -59 11 -60 88 -1 147 67 67 92 63 92 -16z m-140
-373 c0 -81 -162 -138 -189 -66 -18 46 56 105 131 105 44 0 58 -9 58 -39z"/>
<path d="M1641 4883 c57 -77 46 -153 -20 -153 -40 0 -54 14 -71 74 -22 81 -56
78 -66 -5 -9 -81 111 -195 146 -139 8 13 25 13 51 -1 31 -16 39 -14 39 10 0
17 8 31 17 31 10 0 17 20 15 45 -1 28 8 43 24 40 15 -4 21 3 14 15 -7 11 -21
15 -31 9 -11 -6 -20 -2 -21 10 -2 11 -4 31 -5 43 -3 21 -87 76 -119 77 -8 1 4
-25 27 -56z"/>
<path d="M4472 4790 c-21 -16 -46 -31 -56 -35 -73 -24 -37 -259 44 -285 20 -6
42 -25 48 -42 6 -17 20 -25 30 -19 11 6 25 3 31 -8 28 -44 171 65 171 129 0
18 8 27 18 21 35 -21 -2 117 -45 172 -68 86 -176 117 -241 67z m147 -129 c27
-49 27 -135 1 -151 -31 -19 -120 83 -120 139 0 64 87 73 119 12z"/>
<path d="M3649 4639 c-5 -9 -23 -12 -39 -6 -17 6 -35 -3 -42 -21 -7 -18 -21
-32 -32 -32 -34 0 -95 -88 -95 -137 -1 -56 106 -163 162 -163 22 0 35 -8 29
-17 -6 -10 12 -13 40 -7 55 10 148 85 148 119 0 11 13 26 30 32 61 23 -35 193
-109 193 -12 0 -19 10 -16 22 6 27 -60 42 -76 17z m89 -146 c27 -34 11 -85
-33 -102 -43 -16 -165 26 -165 57 0 58 158 93 198 45z"/>
<path d="M1906 4606 c-6 -14 -28 -26 -50 -26 -31 0 -38 -10 -30 -40 6 -22 4
-36 -3 -32 -7 4 -25 -5 -39 -20 -14 -15 -18 -28 -8 -28 9 0 17 -13 17 -29 0
-112 161 -213 231 -146 14 14 53 47 86 74 39 31 46 42 20 33 -30 -11 -34 -9
-17 9 32 32 0 136 -58 189 -50 47 -134 55 -149 16z m102 -78 c21 -55 13 -142
-15 -166 -45 -37 -93 -4 -93 61 0 110 77 185 108 105z"/>
<path d="M3024 4522 c-47 -19 -79 -40 -71 -48 7 -8 -1 -14 -19 -14 -40 0 -97
-79 -79 -108 8 -12 15 -44 17 -71 3 -66 116 -160 175 -145 65 16 133 65 133
96 0 16 8 28 18 28 64 0 17 200 -57 239 -23 13 -37 32 -30 42 6 10 9 18 5 17
-3 -1 -45 -17 -92 -36z m84 -115 c24 -61 -27 -170 -75 -163 -55 8 -67 82 -24
147 37 57 81 64 99 16z"/>
<path d="M4192 4350 c-41 -28 -83 -50 -94 -50 -11 0 -15 -8 -9 -18 6 -10 -3
-23 -19 -29 -17 -7 -30 -35 -30 -64 0 -34 -8 -47 -25 -39 -14 7 -9 0 10 -16
20 -16 33 -41 29 -56 -4 -16 -3 -20 2 -11 5 10 28 -5 51 -33 45 -53 192 -101
162 -53 -10 16 -7 20 8 11 55 -34 200 128 185 208 -5 31 -90 120 -114 120 -7
0 -29 18 -48 40 -34 40 -35 40 -108 -10z m139 -140 c39 -30 39 -30 -1 -61 -58
-45 -126 -57 -160 -29 -93 77 65 164 161 90z"/>
<path d="M5498 5170 c-9 -46 -3 -111 11 -115 25 -7 31 63 7 77 -13 8 -10 19 7
30 20 13 20 17 2 18 -14 0 -26 -4 -27 -10z"/>
<path d="M5951 5141 c-8 -12 -24 -16 -37 -8 -13 7 -17 6 -9 -3 8 -9 6 -26 -4
-39 -12 -14 -12 -34 0 -52 14 -23 18 -19 19 17 0 30 8 41 23 32 14 -8 18 -5
10 7 -7 12 -2 26 12 31 14 4 19 15 12 23 -7 7 -19 4 -26 -8z"/>
<path d="M5844 5032 c8 -9 5 -35 -6 -56 -18 -34 -16 -37 15 -19 40 20 50 23
97 23 17 0 30 14 30 31 0 29 -3 29 -32 -1 -30 -29 -36 -29 -75 4 -24 19 -37
28 -29 18z"/>
<path d="M5903 4858 c-19 -51 -6 -158 20 -158 10 0 12 24 4 53 -11 44 -7 51
20 41 18 -7 33 -5 33 4 0 10 -14 23 -32 30 -18 7 -27 25 -21 42 7 17 7 30 2
30 -6 0 -17 -19 -26 -42z"/>
<path d="M5398 1692 c-29 -34 -68 -111 -87 -172 -94 -292 -533 -679 -802 -708
-22 -3 -49 -10 -60 -16 -62 -39 -264 -76 -479 -88 -216 -13 -210 -12 -210 -34
0 -10 -23 -14 -50 -9 -28 5 -56 2 -62 -8 -6 -9 -29 -7 -51 5 -22 11 -45 17
-50 12 -5 -5 -40 -2 -79 6 -58 14 -66 12 -47 -12 18 -21 17 -30 -4 -37 -26 -9
-799 1 -852 11 -60 11 -18 40 46 32 40 -6 66 -5 60 2 -19 18 -64 22 -291 24
-226 2 -485 36 -469 62 5 8 -15 15 -46 14 -251 -6 -728 294 -914 574 -40 60
-82 110 -92 110 -10 0 -46 37 -79 83 l-60 83 0 -70 c0 -196 285 -564 560 -725
444 -259 993 -371 1809 -371 1153 1 1917 257 2234 747 181 279 243 684 75 485z"/>
</g>
</svg>
