<?xml version="1.0" standalone="no"?>
<!DOCTYPE svg PUBLIC "-//W3C//DTD SVG 20010904//EN"
 "http://www.w3.org/TR/2001/REC-SVG-20010904/DTD/svg10.dtd">
<svg version="1.0" xmlns="http://www.w3.org/2000/svg"
 width="128.000000pt" height="128.000000pt" viewBox="0 0 128.000000 128.000000"
 preserveAspectRatio="xMidYMid meet">
<metadata>
Created by potrace 1.10, written by Peter Selinger 2001-2011
</metadata>
<g transform="translate(0.000000,128.000000) scale(0.050000,-0.050000)"
fill="#000000" stroke="none">
<path d="M222 2412 c-81 -81 -143 -158 -139 -170 4 -13 83 54 177 148 93 93
156 170 139 170 -16 0 -96 -67 -177 -148z"/>
<path d="M412 2202 c-196 -196 -354 -367 -349 -380 4 -12 178 149 387 358 209
209 366 380 350 380 -17 0 -191 -161 -388 -358z"/>
<path d="M1059 2449 c-131 -133 -72 -121 80 16 77 69 95 95 67 95 -20 0 -87
-50 -147 -111z"/>
<path d="M1550 2544 c-11 -8 -45 -43 -77 -77 -88 -98 -32 -94 75 4 84 77 86
136 2 73z"/>
<path d="M1851 2441 c-128 -129 -141 -190 -17 -79 119 106 194 198 162 198
-15 0 -80 -54 -145 -119z"/>
<path d="M2153 2343 c-120 -120 -209 -223 -199 -229 10 -7 121 91 247 217 126
126 215 229 198 229 -16 0 -127 -98 -246 -217z"/>
<path d="M2322 2117 c-122 -123 -222 -237 -222 -253 0 -24 9 -23 43 8 222 194
461 468 409 468 -4 0 -108 -100 -230 -223z"/>
<path d="M1241 2251 c-12 -14 -51 -32 -86 -39 -121 -24 -235 -80 -235 -117 0
-29 7 -31 49 -12 28 13 45 31 39 40 -6 9 15 18 46 19 73 2 252 65 261 92 11
33 -49 47 -74 17z"/>
<path d="M1388 2182 c21 -23 61 -38 103 -38 86 0 72 28 -27 55 -104 29 -115
26 -76 -17z"/>
<path d="M1580 2142 c0 -10 30 -36 67 -57 60 -36 135 -153 176 -275 10 -31 13
-26 15 23 1 34 -11 73 -28 87 -16 14 -30 34 -30 45 0 33 73 -70 107 -152 31
-73 31 -75 -8 -63 -31 10 -39 3 -39 -36 0 -27 -18 -71 -40 -99 -43 -55 -53
-115 -20 -115 11 0 20 -17 20 -38 0 -48 -13 -52 -538 -182 -483 -119 -436 -89
-362 -226 33 -62 60 -126 60 -141 0 -16 14 -39 30 -53 16 -14 30 -42 30 -62 0
-48 -19 -49 279 23 314 76 293 63 363 226 69 164 70 170 15 121 -46 -41 -120
-187 -106 -210 8 -13 -181 -69 -407 -121 -90 -21 -110 -20 -136 7 -28 28 6 50
355 225 323 162 467 251 408 251 -7 0 -189 -91 -406 -203 -344 -177 -396 -199
-401 -165 -14 93 -26 127 -56 157 -39 39 -76 26 457 158 l436 107 81 168 81
168 -40 82 c-87 179 -363 446 -363 350z"/>
<path d="M835 2037 c-39 -15 -55 -34 -55 -69 0 -26 -10 -48 -22 -48 -12 0 -17
15 -10 33 24 61 -46 -13 -102 -108 -49 -83 -64 -179 -37 -224 7 -10 93 39 192
109 165 116 187 126 255 115 158 -27 173 -22 180 59 10 122 -24 163 -126 151
-151 -17 -239 -73 -246 -158 -5 -63 -20 -82 -115 -145 -128 -85 -132 -86 -121
-24 17 94 56 148 74 102 8 -22 16 -28 17 -13 1 30 67 121 139 195 26 26 44 47
40 46 -4 0 -33 -10 -63 -21z"/>
<path d="M1355 2040 c-36 -23 -46 -108 -22 -196 11 -42 19 -45 105 -30 50 8
124 15 162 14 103 -3 142 107 63 179 -45 41 -258 63 -308 33z"/>
<path d="M2341 1734 c-281 -291 -343 -400 -88 -154 246 237 312 312 304 345
-4 14 -101 -72 -216 -191z"/>
<path d="M292 1683 c-86 -87 -153 -169 -149 -181 4 -13 78 48 165 135 86 87
153 169 149 181 -4 13 -78 -48 -165 -135z"/>
<path d="M1321 1561 c-235 -131 -436 -253 -446 -270 -24 -43 -10 -39 100 26
52 32 255 145 450 253 196 107 360 203 366 212 30 48 -76 -2 -470 -221z"/>
<path d="M882 1617 c-240 -59 -266 -69 -218 -88 36 -13 412 79 442 109 39 39
6 36 -224 -21z"/>
<path d="M2187 1178 c-196 -200 -366 -373 -378 -385 -31 -35 -139 -184 -124
-173 81 63 875 873 875 893 0 43 2 45 -373 -335z"/>
<path d="M701 1465 c1 -8 32 -73 70 -145 l69 -130 -13 109 c-9 76 -26 121 -55
145 -45 37 -73 45 -71 21z"/>
<path d="M301 1291 c-91 -92 -162 -177 -158 -189 4 -13 87 57 184 155 98 98
169 183 159 190 -11 6 -94 -64 -185 -156z"/>
<path d="M321 911 c-135 -135 -242 -257 -238 -269 4 -12 123 94 264 235 142
142 249 263 239 269 -10 7 -129 -99 -265 -235z"/>
<path d="M2050 640 c-275 -275 -486 -500 -470 -500 39 0 987 948 977 978 -4
12 -232 -203 -507 -478z"/>
<path d="M421 611 c-159 -159 -282 -296 -274 -304 14 -15 593 549 593 578 0
38 -50 -4 -319 -274z"/>
<path d="M1360 770 c-104 -48 -201 -88 -214 -89 -44 -2 -46 -36 -6 -126 l40
-90 112 26 c61 15 114 29 117 33 17 20 90 203 84 210 -17 17 -76 -62 -86 -115
-10 -48 -201 -132 -215 -94 -1 3 -14 26 -28 52 -32 57 -52 41 176 142 171 76
280 143 229 140 -10 -1 -104 -41 -209 -89z"/>
<path d="M2258 449 c-158 -160 -292 -296 -298 -302 -5 -6 6 -8 25 -4 79 16
631 597 568 597 -4 0 -137 -131 -295 -291z"/>
<path d="M590 380 c-132 -132 -226 -240 -209 -240 16 0 137 108 269 240 132
132 226 240 209 240 -16 0 -137 -108 -269 -240z"/>
<path d="M1279 444 c-63 -30 -69 -39 -50 -74 52 -98 55 -98 103 3 63 128 64
126 -53 71z"/>
<path d="M2454 248 c-52 -58 -88 -109 -79 -115 25 -15 190 159 182 192 -5 19
-40 -8 -103 -77z"/>
<path d="M812 202 c-35 -37 -47 -63 -33 -71 12 -8 28 5 37 29 9 24 23 42 31
41 8 -1 28 11 45 28 25 25 25 31 3 31 -15 0 -52 -26 -83 -58z"/>
</g>
</svg>
