<?xml version="1.0" standalone="no"?>
<!DOCTYPE svg PUBLIC "-//W3C//DTD SVG 20010904//EN"
 "http://www.w3.org/TR/2001/REC-SVG-20010904/DTD/svg10.dtd">
<svg version="1.0" xmlns="http://www.w3.org/2000/svg"
 width="300.000000pt" height="300.000000pt" viewBox="0 0 300.000000 300.000000"
 preserveAspectRatio="xMidYMid meet">
<metadata>
Created by potrace 1.10, written by Peter Selinger 2001-2011
</metadata>
<g transform="translate(0.000000,300.000000) scale(0.050000,-0.050000)"
fill="#000000" stroke="none">
<path d="M4150 5807 c-362 -78 -735 -418 -798 -728 -5 -27 -19 -78 -30 -114
-23 -77 -22 -72 -22 -135 l0 -50 -575 -3 c-425 -2 -531 -7 -405 -18 94 -9 292
-13 440 -9 149 4 627 10 1063 13 845 5 858 3 856 -90 -1 -60 -638 -709 -1008
-1028 -41 -36 -70 -65 -63 -65 6 0 -31 -38 -83 -85 -52 -47 -109 -101 -127
-120 -18 -19 -38 -30 -45 -25 -7 6 -9 5 -5 -2 8 -11 -28 -63 -81 -115 -12 -13
-141 -139 -285 -280 -145 -141 -273 -276 -286 -300 -34 -64 -36 -2286 -1
-2286 20 0 25 241 25 1141 l0 1142 587 587 c323 323 593 579 600 568 26 -42
330 -107 478 -103 687 20 1191 675 1015 1318 -13 50 -23 92 -22 95 7 14 -111
225 -164 295 -138 181 -376 338 -574 380 -16 4 -70 16 -120 28 -118 28 -200
25 -370 -11z m230 -145 c0 -10 15 -23 33 -30 28 -11 29 -8 5 20 -23 28 -22 32
12 25 48 -9 67 -77 21 -77 -17 0 -31 -13 -31 -28 0 -30 -89 -31 -116 -1 -8 8
1 10 20 3 19 -7 41 -2 48 10 8 12 6 17 -4 11 -10 -5 -38 -3 -63 7 -58 22 -60
66 -2 47 28 -9 38 -6 28 9 -7 12 0 22 18 22 17 0 31 -8 31 -18z m-137 -115
c110 -99 24 -457 -100 -418 -77 24 -246 227 -239 286 12 103 263 201 339 132z
m450 -8 c228 -98 237 -164 49 -346 -213 -205 -302 -165 -300 137 2 247 56 292
251 209z m310 -158 c80 -48 96 -113 29 -112 -67 1 -119 49 -90 84 17 20 17 27
0 27 -12 0 -22 9 -22 20 0 28 10 26 83 -19z m-1187 -73 c2 -34 -5 -43 -26 -35
-16 6 -24 21 -17 32 8 13 -5 16 -38 8 -33 -8 -54 -4 -61 13 -6 17 14 25 64 27
63 1 74 -5 78 -45z m68 -182 c186 -184 154 -266 -104 -266 -226 0 -265 53
-179 247 74 167 130 171 283 19z m1195 55 c41 -23 101 -158 101 -230 0 -71
-71 -111 -198 -111 -205 0 -241 108 -88 264 98 99 123 110 185 77z m-679 -50
c0 -5 -14 -22 -31 -40 -31 -30 -3 -43 73 -34 6 0 11 -12 11 -28 0 -32 -25 -39
-42 -11 -12 20 -88 6 -126 -23 -17 -14 -25 -12 -25 6 0 16 -20 7 -50 -21 -49
-46 -155 -77 -111 -33 33 33 25 61 -9 33 -18 -15 -30 -17 -30 -4 0 11 -5 33
-11 49 -8 21 13 29 84 32 62 4 103 17 119 39 20 29 148 58 148 35z m243 -191
c9 0 17 9 17 20 0 11 -10 20 -21 20 -12 0 -16 8 -10 19 43 70 157 -75 117
-148 -14 -25 -26 -22 -72 20 -30 28 -65 45 -77 37 -14 -9 -18 -5 -9 9 9 14 0
24 -22 25 -21 0 -26 5 -11 11 14 6 26 25 26 44 1 24 7 21 23 -12 12 -25 30
-45 39 -45z m-143 -61 c36 -66 24 -76 -62 -54 -57 14 -102 14 -151 -1 -65 -20
-69 -18 -63 23 15 104 225 129 276 32z m769 -119 c-2 -38 -5 -96 -7 -128 -1
-32 -7 -54 -13 -47 -22 21 -33 215 -18 290 l16 75 13 -60 c7 -33 11 -91 9
-130z m-80 -44 c-14 -43 -34 -34 -42 20 -11 70 16 120 36 66 10 -26 12 -65 6
-86z m-40 -67 c81 -81 -31 -349 -146 -349 -135 0 -307 258 -230 343 45 50 327
54 376 6z m-428 -362 c159 -151 156 -209 -11 -292 -193 -95 -273 -40 -256 178
19 250 92 281 267 114z m306 -107 c-14 -59 -20 -65 -90 -95 -57 -24 -61 7 -15
105 30 63 120 55 105 -10z m-747 -91 c0 -84 -35 -129 -101 -129 -74 0 -74 8 6
101 78 91 95 96 95 28z m168 -154 c18 18 14 -21 -6 -53 -10 -15 -27 -21 -38
-14 -12 7 -28 2 -36 -11 -30 -49 -67 41 -43 108 l21 62 45 -52 c25 -29 50 -47
57 -40z"/>
<path d="M671 5629 c-45 -46 -39 -123 12 -151 31 -16 166 -20 462 -13 486 11
431 35 564 -254 464 -1010 542 -1161 597 -1155 53 7 123 -51 125 -102 0 -13
12 -22 25 -19 13 3 22 -6 19 -19 -6 -27 372 -38 428 -12 20 9 42 4 58 -15 27
-33 27 -33 -31 -65 -22 -13 -28 -23 -14 -23 15 -1 7 -20 -20 -48 -25 -26 -53
-44 -61 -39 -8 4 -9 -6 -3 -23 8 -20 1 -31 -21 -31 -33 0 -96 -116 -78 -145 5
-8 -5 -15 -23 -15 -20 0 -27 -9 -18 -23 8 -13 16 -42 18 -65 5 -52 45 -152 61
-152 6 0 5 10 -3 23 -8 14 -5 18 7 10 26 -16 -14 -113 -47 -113 -12 0 -43 -18
-68 -40 l-47 -41 -60 56 c-109 99 -193 190 -193 208 0 9 -11 15 -25 12 -14 -3
-24 10 -22 29 1 19 -8 33 -20 30 -13 -2 -20 8 -17 23 3 17 -6 24 -23 17 -17
-7 -51 18 -86 61 -31 40 -69 82 -83 94 -14 11 -55 52 -90 89 -35 38 -85 89
-110 115 -38 39 -40 47 -12 47 28 0 29 5 5 35 -24 31 -23 32 5 10 17 -13 38
-19 45 -11 18 18 16 -22 -2 -45 -8 -11 1 -3 20 18 19 20 35 29 35 19 0 -25
119 -19 136 7 8 11 38 27 67 34 53 13 68 67 27 98 -11 8 -187 15 -391 15
l-372 0 567 -565 c312 -311 586 -568 609 -572 32 -5 174 125 610 560 l568 567
-74 6 c-72 7 -84 -4 -426 -345 -371 -371 -419 -401 -465 -300 -22 49 -11 64
275 350 l298 299 -484 0 -484 0 -67 145 c-37 80 -196 424 -354 765 -157 341
-299 636 -316 655 -43 50 -983 54 -1033 4z"/>
<path d="M5894 5407 c-7 -7 -3 -30 9 -52 19 -37 16 -40 -31 -31 -44 9 -52 3
-52 -37 0 -26 9 -47 19 -47 11 0 15 14 8 30 -7 19 1 30 21 30 29 0 41 -24 34
-66 -2 -10 5 -12 14 -7 9 6 14 49 10 96 -7 90 -12 104 -32 84z"/>
<path d="M5951 5141 c-8 -12 -24 -16 -37 -8 -13 7 -17 6 -9 -3 8 -9 6 -26 -4
-39 -12 -14 -12 -34 0 -52 14 -23 18 -19 19 17 0 30 8 41 23 32 14 -8 18 -5
10 7 -7 12 -2 26 12 31 14 4 19 15 12 23 -7 7 -19 4 -26 -8z"/>
<path d="M5844 5032 c8 -9 5 -35 -6 -56 -18 -34 -16 -37 15 -19 40 20 50 23
97 23 17 0 30 14 30 31 0 29 -3 29 -32 -1 -30 -29 -36 -29 -75 4 -24 19 -37
28 -29 18z"/>
<path d="M5903 4858 c-19 -51 -6 -158 20 -158 10 0 12 24 4 53 -11 44 -7 51
20 41 18 -7 33 -5 33 4 0 10 -14 23 -32 30 -18 7 -27 25 -21 42 7 17 7 30 2
30 -6 0 -17 -19 -26 -42z"/>
<path d="M600 4740 c-65 -65 13 -272 85 -227 12 7 16 4 9 -6 -16 -26 313 -353
335 -333 10 9 12 6 5 -6 -16 -27 113 -154 136 -133 9 8 11 5 4 -6 -6 -12 294
-327 667 -700 l679 -679 0 -1148 c0 -632 5 -1144 11 -1138 5 6 10 188 10 404
0 307 5 391 24 380 19 -11 19 -8 0 13 -28 31 -35 239 -7 239 10 0 23 15 30 33
11 27 8 29 -18 7 -39 -32 -44 37 -5 79 20 22 20 24 0 12 -21 -11 -26 98 -24
545 2 502 -1 566 -33 627 -20 37 -34 74 -32 83 3 10 -4 11 -15 5 -16 -10 -381
336 -381 360 0 22 -208 206 -223 197 -10 -6 -16 -2 -12 8 3 10 -31 58 -75 106
-44 48 -78 94 -75 103 3 8 -7 15 -21 15 -15 0 -52 27 -83 59 -32 33 -66 54
-77 47 -13 -7 -16 0 -9 19 7 19 0 36 -18 43 -16 7 -23 22 -15 35 8 13 6 18 -4
12 -10 -5 -52 25 -94 67 -41 43 -68 78 -60 78 8 0 -5 14 -30 31 -24 17 -44 44
-44 60 0 16 -11 29 -26 29 -28 0 -106 82 -99 105 3 8 -9 15 -26 15 -17 0 -26
9 -19 20 7 12 5 19 -5 15 -19 -6 -125 101 -125 127 0 8 -18 21 -40 28 -22 7
-35 21 -29 31 6 11 3 19 -8 19 -36 0 -143 103 -130 125 7 12 4 15 -8 8 -11 -7
-26 1 -33 18 -6 18 -19 27 -27 22 -8 -5 -15 21 -15 59 0 37 5 69 10 71 60 15
184 21 620 29 708 13 699 22 -25 25 -590 3 -617 1 -655 -37z"/>
<path d="M1754 319 c-34 -48 -26 -95 23 -134 57 -46 1668 -35 1710 12 74 82
23 162 -97 151 -33 -2 -199 -7 -370 -9 -170 -2 -294 -8 -275 -13 20 -5 31 -17
25 -27 -6 -9 16 -14 49 -10 34 5 61 -1 61 -11 0 -12 13 -12 35 -1 27 14 344
18 477 5 26 -2 29 -62 3 -62 -9 0 -12 -8 -6 -19 7 -11 -286 -19 -747 -20 -564
-2 -763 4 -774 22 -9 15 -5 18 14 9 15 -8 8 3 -16 24 -44 38 -44 40 -5 50 22
6 39 0 39 -13 1 -16 5 -16 16 1 9 15 47 22 91 19 41 -3 80 2 85 11 6 9 21 10
34 2 35 -21 314 -23 314 -2 0 10 8 13 19 7 10 -6 24 -3 31 9 8 13 -99 20 -317
20 -181 0 -343 5 -359 11 -17 7 -43 -7 -60 -32z"/>
</g>
</svg>
