<?xml version="1.0" standalone="no"?>
<!DOCTYPE svg PUBLIC "-//W3C//DTD SVG 20010904//EN"
 "http://www.w3.org/TR/2001/REC-SVG-20010904/DTD/svg10.dtd">
<svg version="1.0" xmlns="http://www.w3.org/2000/svg"
 width="300.000000pt" height="301.000000pt" viewBox="0 0 300.000000 301.000000"
 preserveAspectRatio="xMidYMid meet">
<metadata>
Created by potrace 1.10, written by Peter Selinger 2001-2011
</metadata>
<g transform="translate(0.000000,301.000000) scale(0.050000,-0.050000)"
fill="#000000" stroke="none">
<path d="M1371 5978 c-571 -83 -1034 -501 -1239 -1118 -347 -1044 31 -2057
1227 -3286 616 -634 1596 -1554 1655 -1554 42 0 132 78 435 375 209 207 566
548 791 758 1397 1301 1744 1917 1742 3095 0 601 -126 938 -481 1293 -671 671
-1660 604 -2366 -159 l-134 -146 -55 67 c-444 541 -964 764 -1575 675z m3379
-261 c887 -256 1241 -1283 839 -2438 -233 -670 -506 -1010 -1709 -2134 -236
-221 -528 -501 -648 -622 l-219 -220 -381 362 c-1920 1823 -2372 2491 -2372
3502 0 1609 1699 2182 2577 869 161 -241 213 -246 327 -31 287 542 1025 873
1586 712z"/>
</g>
</svg>
