<?xml version="1.0" standalone="no"?>
<!DOCTYPE svg PUBLIC "-//W3C//DTD SVG 20010904//EN"
 "http://www.w3.org/TR/2001/REC-SVG-20010904/DTD/svg10.dtd">
<svg version="1.0" xmlns="http://www.w3.org/2000/svg"
 width="300.000000pt" height="313.000000pt" viewBox="0 0 300.000000 313.000000"
 preserveAspectRatio="xMidYMid meet">
<metadata>
Created by potrace 1.10, written by Peter Selinger 2001-2011
</metadata>
<g transform="translate(0.000000,313.000000) scale(0.050000,-0.050000)"
fill="#000000" stroke="none">
<path d="M2770 6237 c-582 -52 -1170 -510 -1390 -1080 -267 -692 -104 -1407
440 -1923 99 -95 173 -176 165 -180 -8 -5 -51 -20 -95 -34 -726 -231 -1465
-1010 -1743 -1837 -124 -368 -180 -992 -97 -1083 74 -81 270 -141 270 -82 0
30 -164 265 -193 276 -38 15 -34 73 12 150 22 37 49 116 62 176 134 656 429
1205 862 1608 146 135 352 292 385 292 6 0 -84 -92 -201 -205 -446 -430 -713
-873 -850 -1410 -82 -323 -75 -390 58 -528 137 -142 3 -135 2625 -136 2448 -1
2355 -5 2468 119 268 297 -111 1266 -743 1895 -220 220 -284 299 -174 215 21
-16 89 -67 149 -112 459 -348 822 -938 940 -1528 37 -186 81 -329 123 -401 93
-157 -47 -249 -380 -249 -139 0 -338 -9 -443 -19 -104 -11 -712 -30 -1349 -43
-1118 -21 -1808 -45 -2251 -76 -115 -8 839 -16 2121 -18 l2332 -4 56 58 c54
58 56 63 54 289 -7 1111 -765 2206 -1821 2632 l-163 66 85 72 c790 661 902
1712 266 2486 -374 454 -935 673 -1580 614z m298 -158 c109 -65 89 -79 -113
-78 l-185 0 54 48 c29 26 50 50 45 55 -31 31 140 9 199 -25z m852 -370 c252
-166 480 -465 480 -627 l-1 -92 -38 85 c-102 223 -382 568 -561 689 -27 19
-43 34 -34 35 8 1 78 -40 154 -90z m-1882 -95 c-170 -167 -316 -372 -389 -544
l-51 -120 7 121 c11 182 228 480 465 634 132 86 123 63 -32 -91z m1270 107
c970 -248 1277 -1451 546 -2135 -806 -754 -2095 -183 -2094 927 1 820 757
1410 1548 1208z m-1424 -2163 c195 -244 429 -411 701 -500 160 -52 168 -71 40
-88 -52 -7 -193 -40 -313 -73 -336 -93 -324 -94 -231 21 124 155 97 238 -171
522 -216 230 -310 389 -310 524 l1 86 89 -180 c49 -99 136 -239 194 -312z
m2458 214 c-36 -73 -136 -205 -251 -332 -281 -308 -294 -354 -160 -530 91
-120 92 -119 -132 -49 -104 32 -260 72 -346 89 -220 42 -221 48 -20 120 396
141 687 404 887 802 64 125 71 133 76 80 4 -34 -17 -106 -54 -180z m-888
-1064 c865 -153 1598 -803 1883 -1668 41 -125 122 -463 123 -515 0 -39 -4897
-36 -4912 3 -6 15 12 126 39 247 304 1350 1522 2171 2867 1933z"/>
</g>
</svg>
