<?xml version="1.0" standalone="no"?>
<!DOCTYPE svg PUBLIC "-//W3C//DTD SVG 20010904//EN"
 "http://www.w3.org/TR/2001/REC-SVG-20010904/DTD/svg10.dtd">
<svg version="1.0" xmlns="http://www.w3.org/2000/svg"
 width="300.000000pt" height="300.000000pt" viewBox="0 0 300.000000 300.000000"
 preserveAspectRatio="xMidYMid meet">
<metadata>
Created by potrace 1.10, written by Peter Selinger 2001-2011
</metadata>
<g transform="translate(0.000000,300.000000) scale(0.050000,-0.050000)"
fill="#000000" stroke="none">
<path d="M4420 5682 c-184 -65 -260 -196 -260 -444 l0 -128 -515 -239 c-283
-132 -632 -294 -775 -362 -143 -67 -291 -136 -330 -154 -38 -17 -142 -64 -230
-105 -88 -41 -403 -187 -700 -324 -1372 -634 -1350 -612 -1350 -1330 0 -430
10 -470 144 -585 147 -125 241 -129 461 -15 8 4 13 -86 11 -199 -2 -160 5
-221 30 -267 201 -365 708 -276 764 133 19 133 -6 397 -37 396 -70 -2 -140
-137 -121 -235 12 -68 -55 -276 -88 -269 -13 3 -24 -4 -24 -15 0 -11 -13 -20
-30 -20 -16 0 -30 -12 -30 -28 0 -35 -123 -32 -135 4 -5 13 -21 24 -36 24 -38
0 -112 83 -100 114 5 13 2 29 -6 34 -9 6 -18 53 -20 106 -8 157 -12 175 -41
198 -17 13 -22 32 -12 48 10 16 8 21 -3 14 -11 -6 -42 9 -69 34 -45 41 -218
66 -218 31 0 -6 -18 -12 -40 -14 -22 -1 -40 5 -40 14 0 30 -66 43 -85 17 -14
-20 -16 -20 -10 2 4 16 -13 48 -37 72 -41 41 -44 62 -43 305 0 143 -7 272 -15
286 -10 16 -8 20 6 12 15 -10 18 12 11 71 -14 102 -14 109 2 184 30 138 63
169 308 284 220 103 237 115 271 194 l37 84 27 -105 c147 -568 822 -754 1207
-332 221 241 247 563 71 855 -79 132 -77 151 14 117 91 -35 220 25 267 123 52
110 62 103 75 -52 69 -825 1233 -883 1397 -70 42 212 -51 465 -239 644 l-93
90 126 0 c127 0 263 44 263 86 0 11 5 15 12 9 6 -6 53 9 105 35 100 50 282 90
411 90 60 0 74 6 57 23 -13 13 -51 22 -84 21 -38 -1 -57 7 -49 19 9 14 1 15
-25 1 -20 -10 -62 -16 -92 -13 -32 4 -55 -4 -56 -17 0 -13 -12 -9 -26 10 -20
26 -32 29 -50 11 -24 -24 -25 -21 -32 75 -1 22 -13 59 -26 83 -72 128 282 72
426 -68 226 -219 523 -1219 608 -2048 86 -830 -62 -1965 -342 -2618 l-38 -91
-135 -21 c-74 -11 -137 -13 -141 -3 -3 9 -15 11 -25 5 -33 -21 -201 14 -191
40 5 13 -3 24 -18 24 -15 0 -23 -7 -17 -16 6 -9 -4 -11 -21 -5 -17 7 -31 25
-31 40 0 15 -10 28 -22 28 -12 0 -17 14 -10 31 6 18 3 26 -8 19 -11 -7 -21 8
-23 34 -2 25 -5 69 -7 96 -8 118 -34 183 -83 201 -39 15 -47 28 -36 61 7 23
15 61 18 85 2 24 16 77 30 119 14 42 22 79 18 82 -12 9 -465 207 -501 219 -32
10 -32 7 -1 -59 19 -40 53 -74 79 -81 25 -6 46 -18 46 -26 0 -8 27 -10 60 -5
68 10 83 -70 34 -180 -24 -54 -24 -54 -71 -15 -28 23 -40 48 -31 63 11 19 6
18 -18 -1 -19 -16 -34 -19 -34 -8 0 11 -19 25 -42 31 -28 8 -37 20 -27 38 11
20 9 21 -11 3 -31 -29 -80 -13 -80 26 0 16 -8 24 -18 18 -31 -19 -142 32 -142
66 -1 29 -3 29 -20 3 -17 -27 -19 -27 -20 0 -1 27 -3 27 -20 0 -19 -30 -31 -6
-22 46 2 9 -12 8 -31 -3 -26 -14 -43 -8 -70 24 -25 30 -36 34 -36 14 -1 -20
-13 -16 -42 15 -22 24 -63 44 -90 44 -28 0 -49 12 -49 28 0 23 -104 61 -128
47 -4 -3 -26 12 -49 32 -22 20 -50 31 -62 24 -11 -7 -21 -3 -21 9 0 12 -8 17
-19 11 -10 -6 -24 -2 -31 9 -7 11 -21 15 -32 9 -10 -6 -24 3 -30 20 -7 17 -34
31 -60 31 -26 0 -48 10 -48 21 0 12 -9 16 -19 9 -11 -6 -35 6 -53 27 -19 22
-46 35 -61 29 -15 -6 -27 0 -27 12 0 12 -7 20 -15 18 -34 -9 -105 28 -92 49 7
11 4 16 -6 9 -11 -7 -45 1 -76 17 -30 16 -68 29 -83 29 -16 0 -28 9 -28 20 0
11 -7 19 -15 18 -42 -6 -110 33 -137 80 -17 28 -26 37 -20 18 6 -19 3 -39 -7
-45 -9 -6 -21 8 -27 31 -9 34 -18 37 -51 19 -28 -14 -45 -15 -53 -1 -7 12 -2
19 11 15 13 -3 28 6 33 20 6 15 -2 21 -19 14 -17 -6 -37 9 -50 37 -20 44 -17
47 27 39 31 -6 48 0 48 17 0 20 5 21 24 2 13 -13 40 -24 59 -24 19 0 40 -17
46 -38 8 -25 25 -35 51 -28 21 6 69 -9 107 -32 37 -23 82 -42 100 -42 18 0 33
-9 33 -20 0 -11 18 -20 40 -20 22 0 40 -7 40 -15 0 -9 19 -27 42 -42 30 -18
38 -19 27 -2 -9 16 -5 21 13 14 15 -5 26 -20 23 -33 -3 -12 4 -22 15 -22 11 0
20 10 20 22 0 16 7 17 25 2 19 -15 39 -11 72 14 46 34 43 36 -432 258 -263
122 -494 229 -512 236 -31 12 -34 -8 -29 -223 l6 -236 570 -266 c314 -146 859
-401 1213 -566 353 -166 651 -301 663 -301 12 0 20 -61 20 -155 -2 -337 131
-453 524 -454 439 -2 563 148 810 978 394 1320 318 2794 -209 4056 -135 322
-516 480 -861 357z m147 -187 c-8 -15 1 -12 23 5 22 17 31 20 23 5 -9 -14 -6
-25 6 -25 11 0 21 9 21 20 0 33 124 22 167 -15 22 -19 33 -24 25 -10 -8 14 -5
25 7 25 11 0 21 -9 21 -19 0 -11 15 -14 33 -7 24 9 29 6 17 -14 -11 -19 -9
-21 10 -10 18 11 43 -3 76 -42 26 -32 42 -44 35 -28 -8 17 0 13 18 -9 17 -21
31 -49 31 -61 0 -32 48 -130 63 -130 8 0 11 -22 8 -50 -3 -29 5 -50 19 -50 22
0 63 -106 83 -218 5 -26 18 -65 29 -85 11 -20 15 -37 10 -37 -6 0 3 -31 19
-70 16 -38 23 -70 14 -70 -8 0 -4 -8 10 -16 13 -9 27 -43 31 -76 4 -33 13 -71
21 -84 9 -13 10 -33 3 -44 -7 -11 -5 -20 4 -20 9 0 18 -29 19 -64 1 -36 14
-68 27 -73 19 -6 19 -11 0 -23 -18 -11 -19 -25 -1 -58 13 -23 17 -52 11 -62
-7 -11 -4 -20 6 -20 11 0 24 -18 30 -40 6 -22 2 -40 -9 -40 -11 0 -11 -14 0
-35 9 -19 16 -56 14 -81 -3 -25 4 -51 13 -57 10 -6 8 -22 -4 -37 -16 -19 -15
-30 2 -41 17 -11 19 -6 8 13 -9 15 -9 21 1 12 22 -20 31 -77 10 -64 -9 5 -21
-8 -27 -30 -7 -26 0 -40 18 -40 15 0 28 -10 28 -21 0 -12 -11 -15 -25 -6 -14
8 -12 -1 5 -22 23 -29 24 -40 5 -46 -14 -5 -25 -22 -25 -38 0 -16 9 -24 20
-17 11 7 20 3 20 -9 0 -11 -7 -21 -16 -21 -8 0 -17 -18 -19 -40 -1 -22 6 -40
16 -40 10 0 13 -41 5 -93 -10 -77 -7 -90 16 -77 23 13 23 11 3 -11 -30 -32
-34 -187 -5 -169 11 7 20 3 20 -9 0 -11 -9 -21 -20 -21 -30 0 -25 -220 5 -222
20 -1 20 -3 0 -11 -14 -6 -25 -19 -25 -30 0 -11 9 -14 20 -7 35 22 22 -34 -15
-63 -32 -24 -32 -26 -1 -15 25 8 33 1 31 -29 -2 -22 -11 -35 -21 -29 -9 5 -13
-18 -7 -52 5 -34 1 -67 -9 -73 -10 -6 -18 -22 -18 -35 0 -14 8 -12 20 6 17 26
19 25 20 -5 0 -19 -11 -35 -25 -35 -17 -1 -15 -7 5 -20 19 -12 21 -20 6 -20
-14 0 -20 -14 -13 -30 6 -17 0 -44 -13 -60 -14 -16 -20 -52 -15 -80 9 -49 -11
-68 -34 -31 -22 35 -30 485 -10 522 10 20 12 41 3 46 -8 6 -15 91 -15 190 1
98 -6 175 -14 170 -8 -5 -12 41 -8 102 3 61 -1 111 -9 111 -8 0 -12 27 -8 59
5 33 -1 65 -11 72 -10 6 -19 29 -19 51 0 22 8 35 18 29 41 -25 35 47 -8 94
-35 37 -41 56 -24 73 16 16 14 22 -7 22 -25 1 -25 4 1 20 17 11 20 20 7 20
-12 0 -27 18 -33 40 -6 22 -2 35 8 29 10 -6 18 -2 18 10 0 11 -8 21 -18 21
-10 0 -16 23 -13 50 3 28 -1 55 -10 61 -8 5 -10 28 -4 52 8 29 4 39 -12 29
-15 -10 -20 5 -15 47 4 34 -2 67 -12 74 -11 6 -15 29 -10 50 6 21 0 49 -13 62
-30 33 -42 103 -14 86 31 -19 26 1 -9 36 -17 17 -32 53 -34 80 -3 28 -11 46
-19 41 -14 -9 -49 126 -41 157 2 8 -6 15 -17 15 -12 0 -16 9 -9 20 7 11 4 20
-7 20 -11 0 -26 36 -33 80 -7 44 -20 80 -28 80 -16 0 -21 30 -23 134 0 40 -18
80 -49 110 -27 25 -49 58 -50 72 0 15 -9 21 -20 14 -26 -16 -17 34 10 56 11 9
-1 11 -28 3 -32 -9 -43 -6 -33 9 7 12 4 23 -8 25 -11 1 -30 3 -40 5 -10 1 -31
15 -45 31 -23 25 -21 25 12 0 36 -27 37 -27 12 14 -16 25 -43 40 -64 36 -23
-4 -37 6 -38 27 -1 21 -5 24 -11 9 -6 -14 -19 -25 -30 -25 -11 0 -14 9 -7 20
7 12 -15 21 -54 21 -51 1 -57 5 -27 17 27 11 31 20 14 30 -26 16 -13 52 19 52
11 0 14 -11 5 -25z m-736 -868 c27 -29 49 -65 49 -80 0 -15 9 -27 20 -27 11 0
20 -13 20 -29 0 -15 14 -42 31 -60 18 -17 22 -31 10 -31 -13 0 -21 -54 -21
-140 0 -77 -8 -140 -18 -140 -58 0 -82 29 -82 100 0 97 -60 283 -88 274 -12
-5 -40 12 -63 35 -22 24 -49 41 -60 37 -11 -3 -31 12 -44 34 -14 22 -19 41
-10 41 45 5 114 21 122 29 25 26 90 5 134 -43z m-256 -51 c-3 -13 -24 -42 -47
-65 -23 -23 -57 -65 -76 -94 -45 -71 -121 -84 -162 -29 -18 23 -25 29 -18 14
11 -21 6 -25 -17 -17 -18 7 -37 2 -43 -11 -6 -13 -9 -6 -6 16 5 52 55 110 94
110 17 0 49 13 71 28 50 35 111 46 144 25 15 -9 25 -9 23 1 -5 31 2 46 22 46
11 0 18 -11 15 -24z m115 -124 c223 -223 -36 -633 -346 -548 -204 56 -334 290
-192 344 36 14 128 -36 128 -68 0 -44 82 -100 147 -100 124 0 196 127 136 240
-71 133 25 233 127 132z m-280 -150 c33 -13 71 -27 85 -32 14 -5 25 -23 25
-39 0 -17 -11 -32 -25 -33 -14 -1 -43 -4 -65 -5 -22 -2 -74 17 -115 42 -97 59
-188 58 -243 -1 -44 -48 -67 -194 -30 -194 11 0 15 -9 8 -20 -7 -11 -3 -20 7
-20 11 0 26 -18 33 -40 7 -22 21 -35 31 -29 11 6 19 4 19 -6 0 -10 14 -35 31
-56 18 -22 26 -27 18 -12 -11 22 -6 23 30 4 35 -19 39 -29 19 -53 -19 -24 -18
-27 9 -16 18 7 33 2 33 -10 0 -35 -83 -26 -114 13 -16 19 -23 24 -16 10 7 -14
3 -25 -9 -25 -11 0 -21 7 -21 16 0 9 -35 43 -78 75 -59 44 -76 69 -69 104 4
25 -1 45 -13 45 -11 0 -20 14 -20 30 0 17 -10 30 -21 30 -12 0 -16 9 -9 20 7
11 -3 20 -21 20 -27 0 -29 6 -10 29 19 22 15 37 -17 69 -46 46 -37 56 86 92
99 30 378 25 462 -8z m467 -312 c43 -63 45 -71 15 -101 -18 -17 -32 -24 -32
-15 0 9 -7 7 -15 -4 -21 -29 -112 -77 -96 -51 23 36 -5 23 -48 -22 -33 -36
-45 -39 -70 -18 -32 27 -41 11 -33 -54 2 -14 -9 -19 -26 -13 -30 12 -32 96 -2
123 9 8 9 2 0 -13 -13 -22 -8 -26 18 -15 20 7 44 13 55 13 11 0 14 9 7 20 -15
25 29 70 68 70 16 0 30 18 32 40 11 138 51 151 127 40z m-1630 -14 c14 -13 22
-45 17 -70 -5 -25 3 -61 18 -78 36 -43 38 -323 3 -352 -13 -11 -20 -28 -14
-37 5 -9 1 -22 -11 -29 -11 -7 -20 -28 -20 -47 0 -93 -221 -238 -237 -156 -4
24 1 33 15 24 12 -7 22 -2 23 13 1 49 74 117 112 104 23 -7 28 -5 15 5 -28 21
0 107 34 107 16 0 16 8 -2 30 -15 18 -17 30 -4 30 22 0 22 36 -2 73 -8 13 -9
38 -2 55 8 22 -4 38 -40 51 -29 11 -52 27 -52 37 0 27 -138 18 -149 -10 -5
-14 -24 -26 -40 -26 -17 0 -31 -11 -31 -24 0 -33 -81 -116 -113 -116 -15 0
-27 7 -27 16 0 8 -49 17 -110 20 -64 3 -110 -4 -110 -16 0 -11 -13 -20 -30
-20 -16 0 -30 -13 -30 -30 0 -16 -8 -30 -18 -30 -22 0 6 -131 36 -167 12 -15
16 -33 8 -40 -7 -7 -1 -13 13 -13 44 0 121 -97 107 -134 -9 -21 -16 -25 -21
-10 -5 13 -19 24 -31 24 -13 0 -43 24 -68 53 -26 29 -46 41 -46 26 0 -26 -87
54 -92 86 -2 8 -4 25 -5 36 -2 12 -13 15 -26 7 -14 -8 -18 -5 -10 8 8 11 -3
33 -24 48 -101 71 -78 112 110 199 266 123 627 292 717 336 97 47 105 48 137
17z m1152 -189 c26 -19 41 -23 33 -10 -19 31 13 30 45 -2 20 -20 23 -18 12 10
-15 38 20 49 42 13 20 -31 -29 -57 -106 -58 -48 0 -65 9 -66 35 0 27 -7 23
-29 -15 -16 -27 -29 -41 -30 -30 0 11 -9 7 -19 -9 -10 -17 -24 -25 -31 -18
-11 12 70 116 91 117 5 0 32 -15 58 -33z m-1283 -195 c10 -79 -65 -215 -149
-272 -154 -104 -441 -31 -464 118 -15 104 85 133 181 52 112 -95 256 -21 256
132 0 101 164 74 176 -30z m-130 -413 c8 -32 5 -37 -15 -20 -20 16 -29 14 -38
-8 -15 -40 -133 -42 -133 -3 0 15 21 27 50 27 30 0 45 -9 37 -22 -7 -13 9 -3
35 22 57 54 51 54 64 4z m-276 -24 c-7 14 -3 25 9 25 33 0 25 -40 -11 -54 -18
-6 -40 0 -49 15 -27 44 2 65 34 25 17 -20 24 -25 17 -11z m162 -69 c-21 -21
-117 -24 -152 -4 -20 11 4 17 68 17 54 1 92 -5 84 -13z m3590 -1004 c11 20 15
15 13 -16 -2 -24 -11 -38 -20 -33 -10 6 -15 -3 -11 -20 3 -17 -3 -30 -14 -30
-11 1 -16 11 -12 24 4 13 7 41 7 63 -1 23 3 28 9 13 9 -23 14 -23 28 -1z
m-1337 -911 c-5 -28 -18 -45 -29 -39 -10 7 -14 25 -8 41 7 16 3 24 -8 17 -11
-7 -20 -4 -20 7 0 21 42 42 62 31 7 -4 8 -30 3 -57z"/>
<path d="M5894 5407 c-7 -7 -3 -30 9 -52 19 -37 16 -40 -31 -31 -44 9 -52 3
-52 -37 0 -26 9 -47 19 -47 11 0 15 14 8 30 -7 19 1 30 21 30 29 0 41 -24 34
-66 -2 -10 5 -12 14 -7 9 6 14 49 10 96 -7 90 -12 104 -32 84z"/>
<path d="M5951 5141 c-8 -12 -24 -16 -37 -8 -13 7 -17 6 -9 -3 8 -9 6 -26 -4
-39 -12 -14 -12 -34 0 -52 14 -23 18 -19 19 17 0 30 8 41 23 32 14 -8 18 -5
10 7 -7 12 -2 26 12 31 14 4 19 15 12 23 -7 7 -19 4 -26 -8z"/>
<path d="M5844 5032 c8 -9 5 -35 -6 -56 -18 -34 -16 -37 15 -19 40 20 50 23
97 23 17 0 30 14 30 31 0 29 -3 29 -32 -1 -30 -29 -36 -29 -75 4 -24 19 -37
28 -29 18z"/>
<path d="M4820 4920 c-16 -11 -54 -15 -84 -9 -142 30 -488 -88 -466 -159 7
-23 36 -129 64 -236 l50 -194 73 46 c114 71 199 95 393 111 124 11 166 20 135
30 -25 9 -45 21 -45 28 0 7 -54 10 -120 6 -66 -4 -120 -13 -120 -20 0 -8 -40
-14 -88 -13 -49 0 -85 -6 -80 -13 4 -7 -10 -17 -32 -23 -44 -11 -108 57 -86
92 7 11 2 14 -10 6 -12 -7 -17 -29 -12 -48 10 -30 8 -29 -12 2 -18 27 -18 43
0 64 13 15 19 44 14 64 -7 26 -10 22 -12 -14 -2 -36 -7 -43 -20 -23 -26 41 6
133 45 130 18 -1 28 5 23 13 -17 27 44 38 70 13 18 -16 22 -16 13 0 -20 36 39
71 111 65 78 -7 176 19 176 45 0 11 8 14 18 8 10 -6 23 3 29 19 14 35 12 36
-27 10z"/>
<path d="M5903 4858 c-19 -51 -6 -158 20 -158 10 0 12 24 4 53 -11 44 -7 51
20 41 18 -7 33 -5 33 4 0 10 -14 23 -32 30 -18 7 -27 25 -21 42 7 17 7 30 2
30 -6 0 -17 -19 -26 -42z"/>
<path d="M5030 4320 c-7 -11 -52 -20 -100 -20 -170 0 -501 -114 -500 -172 1
-23 54 -348 57 -348 2 0 53 19 113 42 203 79 489 59 512 -34 22 -86 -30 -118
-181 -111 -130 6 -330 -37 -393 -83 -27 -21 -29 -45 -13 -174 10 -82 15 -323
11 -533 l-7 -384 70 -35 c49 -24 135 -38 275 -44 218 -9 254 -25 243 -107 -15
-100 -333 -129 -527 -48 -42 17 -78 29 -79 26 -2 -3 -15 -68 -29 -145 -13 -77
-28 -158 -32 -181 -14 -67 198 -153 406 -165 178 -10 231 -42 209 -127 -26
-99 -332 -93 -549 11 -57 28 -106 48 -108 46 -2 -2 -17 -62 -34 -134 -18 -71
-42 -169 -56 -216 -34 -125 117 -204 393 -204 161 -1 218 -50 158 -135 -50
-71 -350 -67 -527 7 -87 36 -99 23 -37 -39 37 -37 45 -58 31 -86 -18 -35 -17
-35 10 -2 37 46 146 46 172 0 14 -24 21 -26 21 -8 1 19 15 23 46 14 72 -22
155 -26 155 -7 0 10 11 16 25 14 147 -24 212 176 88 271 -66 50 -105 66 -86
35 6 -9 -21 -12 -58 -8 -38 5 -65 14 -61 21 4 7 -31 13 -80 14 -62 0 -96 11
-119 40 -18 21 -25 26 -17 11 9 -19 6 -23 -9 -14 -30 19 -29 77 2 111 20 22
20 24 -1 12 -35 -20 -8 88 32 128 30 30 104 45 104 20 0 -7 23 -9 50 -4 28 5
50 2 50 -8 0 -10 29 -20 65 -21 36 -2 92 -5 125 -7 33 -2 92 8 130 23 39 15
77 25 86 22 10 -3 12 3 5 14 -6 10 -3 22 7 25 74 27 11 217 -72 217 -14 0 -26
7 -26 15 0 8 -41 16 -92 18 -50 1 -101 12 -114 25 -12 12 -31 22 -43 22 -12 0
-7 -9 9 -20 44 -28 -11 -26 -66 3 -88 46 -161 117 -121 117 28 1 31 5 10 18
-33 21 -21 94 15 87 14 -4 20 3 13 14 -7 10 8 30 33 43 40 21 43 21 21 -5 -20
-25 -19 -30 5 -30 17 0 30 7 30 16 0 10 14 17 31 17 17 0 27 -7 21 -16 -5 -9
53 -16 129 -15 76 1 139 9 139 18 0 10 13 12 28 7 16 -6 51 15 81 48 31 35 62
54 77 45 15 -9 14 -2 -3 19 -16 19 -22 34 -15 34 24 0 -48 119 -84 138 -19 10
-110 23 -203 28 -127 7 -174 17 -193 43 -19 26 -28 28 -40 7 -11 -16 -25 18
-41 94 -31 147 -36 678 -7 660 11 -7 20 -3 20 9 0 11 -10 21 -22 21 -13 0 -18
18 -12 40 6 22 2 35 -8 29 -27 -17 -21 16 12 59 16 21 24 46 18 55 -6 9 6 17
26 17 30 1 31 4 6 20 -24 15 -20 20 20 20 28 1 67 14 88 30 28 21 47 23 77 7
24 -12 35 -13 28 -1 -7 11 5 24 27 30 22 6 36 4 31 -4 -14 -23 131 -6 161 20
15 12 29 15 30 5 1 -9 14 19 28 63 32 102 -6 179 -98 201 -89 21 -313 24 -325
4 -6 -9 -22 -7 -37 5 -19 16 -30 16 -41 -2 -10 -16 -26 -9 -52 24 -32 41 -36
42 -25 8 9 -31 7 -33 -8 -12 -44 61 21 245 72 205 3 -2 19 9 35 25 17 17 45
25 63 18 20 -8 28 -5 20 8 -8 12 4 26 26 32 22 6 40 2 40 -8 0 -22 45 -15 63
9 7 10 52 19 100 20 76 3 87 9 87 48 0 51 -2 54 -20 25z"/>
<path d="M4061 3601 c-30 -56 -26 -90 16 -128 73 -66 163 -29 163 67 0 98
-135 144 -179 61z"/>
<path d="M2728 3490 c-67 -102 76 -205 159 -113 43 47 42 89 -4 130 -52 48
-117 41 -155 -17z"/>
<path d="M4120 3363 c0 -41 35 -335 53 -443 11 -69 12 -69 30 -20 22 56 17
380 -5 380 -8 0 -23 27 -35 60 -24 68 -43 78 -43 23z"/>
<path d="M3449 3299 c-59 -66 -20 -147 76 -155 63 -5 78 1 98 44 50 111 -91
202 -174 111z"/>
<path d="M3321 2898 c-347 -68 -561 -324 -577 -689 l-8 -180 486 -226 c537
-248 524 -246 661 -125 522 459 110 1354 -562 1220z m218 -158 c1 25 5 25 19
2 10 -15 28 -21 40 -13 13 8 21 3 17 -12 -5 -24 6 -29 75 -34 17 -2 30 -20 30
-42 0 -26 11 -37 36 -32 48 9 106 -36 109 -86 2 -23 16 -47 30 -52 15 -6 23
-18 18 -27 -20 -31 25 -77 45 -46 22 34 16 -71 -7 -123 -16 -36 -7 -148 19
-235 13 -41 11 -46 -11 -25 -40 38 -54 30 -48 -25 3 -29 -8 -57 -26 -68 -20
-11 -26 -30 -18 -52 12 -31 10 -32 -20 -8 -26 21 -31 22 -19 2 19 -31 -39 -82
-94 -83 -20 -1 -33 -13 -30 -30 3 -15 -3 -27 -14 -25 -11 2 -18 13 -15 24 3
11 -16 33 -40 49 -41 25 -43 25 -17 -6 36 -44 11 -68 -39 -37 -21 13 -53 24
-71 24 -21 0 -28 11 -20 31 9 24 2 29 -25 20 -45 -14 -107 6 -92 30 5 9 -26
27 -70 39 -45 12 -81 30 -81 41 0 10 -7 18 -15 17 -8 -2 -22 -1 -30 2 -30 10
-56 15 -87 18 -20 1 -28 13 -21 32 9 24 1 28 -38 18 -38 -10 -49 -5 -49 22 0
27 -12 32 -55 22 -45 -10 -48 -9 -20 9 43 26 46 59 5 59 -16 0 -30 14 -30 31
0 17 9 26 20 19 11 -7 20 -4 20 7 0 11 -11 23 -23 27 -13 5 -25 27 -27 50 -2
28 6 39 24 32 18 -7 22 0 14 22 -7 17 -3 32 9 32 12 0 17 13 11 28 -6 16 9 49
34 74 30 30 34 41 12 32 -22 -8 -29 -3 -21 17 6 16 21 29 32 29 11 0 47 32 80
70 65 76 100 91 83 35 -9 -28 -4 -26 25 8 51 58 101 79 207 85 50 3 99 14 110
24 12 12 24 6 33 -16 11 -27 15 -28 16 -6z"/>
<path d="M3307 2634 c-11 -20 -39 -37 -62 -39 -23 -2 -38 -10 -32 -19 5 -9 -5
-16 -23 -16 -18 0 -27 -8 -21 -19 6 -10 1 -25 -12 -33 -14 -9 -18 -6 -9 9 8
13 5 23 -6 23 -12 0 -27 -22 -34 -50 -7 -27 -21 -50 -31 -50 -11 0 -15 -8 -9
-17 6 -10 2 -47 -8 -84 -14 -49 -13 -71 5 -83 19 -11 17 -16 -5 -16 -16 -1 -1
-15 35 -33 36 -18 65 -40 65 -51 0 -10 9 -13 20 -6 11 7 20 1 20 -13 0 -19 5
-20 24 -1 17 17 30 17 51 0 21 -18 29 -14 38 19 12 48 87 77 87 33 0 -15 11
-28 25 -28 18 -1 18 -5 -2 -18 -19 -12 -20 -20 -5 -25 13 -4 25 -36 27 -70 3
-35 8 -60 13 -56 4 4 26 -6 49 -22 71 -49 314 23 260 78 -8 7 -2 13 12 13 16
0 22 18 16 48 -5 30 0 45 13 40 12 -5 23 14 25 42 1 27 -6 50 -18 50 -12 0
-12 10 2 27 13 15 16 33 9 40 -8 8 -17 34 -20 59 -11 75 -22 92 -90 136 -36
23 -50 37 -30 30 21 -7 31 -3 24 8 -7 11 -32 20 -56 20 -36 1 -38 4 -14 20 17
11 21 20 9 20 -12 0 -32 -11 -46 -25 -14 -14 -23 -16 -19 -5 3 11 0 20 -7 20
-7 0 -33 18 -58 40 -25 22 -39 29 -31 15 9 -16 1 -25 -23 -25 -20 0 -49 11
-64 25 -21 20 -24 20 -13 0 9 -15 3 -25 -15 -25 -16 0 -33 11 -38 24 -5 17
-15 13 -28 -10z m295 -143 c201 -136 166 -547 -41 -481 -55 17 -68 78 -32 148
41 79 39 114 -9 162 -68 68 -220 32 -220 -52 0 -52 -78 -74 -133 -38 -43 28
-49 44 -39 96 37 186 306 280 474 165z"/>
<path d="M2324 2796 c-31 -31 -31 -121 0 -152 63 -63 176 -14 176 76 0 66 -34
100 -100 100 -29 0 -63 -11 -76 -24z"/>
<path d="M4165 2780 c-74 -118 90 -227 167 -110 30 46 30 54 0 100 -41 62
-131 68 -167 10z"/>
<path d="M4104 1695 c-29 -158 -30 -215 -4 -215 11 0 20 18 20 41 0 22 12 45
26 50 31 12 42 109 12 109 -12 0 -17 13 -11 30 7 16 5 49 -4 72 -12 32 -21 13
-39 -87z"/>
</g>
</svg>
